<?xml version="1.0" encoding="utf-8"?>
<!-- Svg Vector Icons : http://www.onlinewebfonts.com/icon -->
<!DOCTYPE svg PUBLIC "-//W3C//DTD SVG 1.1//EN" "http://www.w3.org/Graphics/SVG/1.1/DTD/svg11.dtd">
<svg version="1.1" xmlns="http://www.w3.org/2000/svg" xmlns:xlink="http://www.w3.org/1999/xlink" x="0px" y="0px" viewBox="0 0 1000 1000" enable-background="new 0 0 1000 1000" xml:space="preserve">
<metadata> Svg Vector Icons : http://www.onlinewebfonts.com/icon </metadata>
<g><g><g><path d="M894.7,10H105.3C52.8,10,10,52.8,10,105.3v789.3c0,52.6,42.8,95.3,95.3,95.3h789.3c52.6,0,95.3-42.8,95.3-95.3V105.3C990,52.8,947.2,10,894.7,10z M911.5,894.7c0,9.3-7.5,16.8-16.8,16.8H105.3c-9.3,0-16.8-7.5-16.8-16.8V214.6h823V894.7z"/><path d="M384.4,400.3h378.4c24.8,0,45-20.2,45-45c0-24.8-20.2-45-45-45H384.4c-24.8,0-45,20.2-45,45C339.3,380.1,359.5,400.3,384.4,400.3z"/><path d="M384.4,546.4h378.4c24.8,0,45-20.2,45-45c0-24.8-20.2-45-45-45H384.4c-24.8,0-45,20.2-45,45C339.3,526.2,359.5,546.4,384.4,546.4z"/><path d="M384.4,692.4h378.4c24.8,0,45-20.2,45-45c0-24.8-20.2-45-45-45H384.4c-24.8,0-45,20.2-45,45C339.3,672.2,359.5,692.4,384.4,692.4z"/><path d="M384.4,846.8h378.4c24.8,0,45-20.2,45-45c0-24.8-20.2-45-45-45H384.4c-24.8,0-45,20.2-45,45C339.3,826.6,359.5,846.8,384.4,846.8z"/><path d="M237.2,400.3c24.8,0,45-20.2,45-45c0-24.8-20.2-45-45-45c-24.8,0-45,20.2-45,45C192.2,380.1,212.4,400.3,237.2,400.3z"/><path d="M237.2,546.4c24.8,0,45-20.2,45-45c0-24.8-20.2-45-45-45c-24.8,0-45,20.2-45,45C192.2,526.2,212.4,546.4,237.2,546.4z"/><path d="M237.2,692.4c24.8,0,45-20.2,45-45c0-24.8-20.2-45-45-45c-24.8,0-45,20.2-45,45C192.2,672.2,212.4,692.4,237.2,692.4z"/><path d="M237.2,846.8c24.8,0,45-20.2,45-45c0-24.8-20.2-45-45-45c-24.8,0-45,20.2-45,45C192.2,826.6,212.4,846.8,237.2,846.8z"/></g></g><g></g><g></g><g></g><g></g><g></g><g></g><g></g><g></g><g></g><g></g><g></g><g></g><g></g><g></g><g></g></g>
</svg>