<?xml version="1.0" encoding="utf-8"?>
<!-- Svg Vector Icons : http://www.onlinewebfonts.com/icon -->
<!DOCTYPE svg PUBLIC "-//W3C//DTD SVG 1.1//EN" "http://www.w3.org/Graphics/SVG/1.1/DTD/svg11.dtd">
<svg version="1.1" xmlns="http://www.w3.org/2000/svg" xmlns:xlink="http://www.w3.org/1999/xlink" x="0px" y="0px" viewBox="0 0 1000 1000" enable-background="new 0 0 1000 1000" xml:space="preserve">
<metadata> Svg Vector Icons : http://www.onlinewebfonts.com/icon </metadata>
<g><path d="M10,723.3l154.4-446.7h57.3l164.5,446.7h-60.6L278.7,588H110.6L66.5,723.3H10L10,723.3z M126,539.9h136.3l-42-123.7c-12.8-37.6-22.3-68.4-28.5-92.6c-5.2,28.6-12.3,57.1-21.7,85.3L126,539.9L126,539.9z"/><path d="M426.5,723.3V276.7h53.2v393.9h198v52.7L426.5,723.3L426.5,723.3z"/><path d="M738.8,723.3V276.7h53.1v393.9H990v52.7L738.8,723.3L738.8,723.3z"/></g>
</svg>