<?xml version="1.0" encoding="utf-8"?>
<!-- Svg Vector Icons : http://www.onlinewebfonts.com/icon -->
<!DOCTYPE svg PUBLIC "-//W3C//DTD SVG 1.1//EN" "http://www.w3.org/Graphics/SVG/1.1/DTD/svg11.dtd">
<svg version="1.1" xmlns="http://www.w3.org/2000/svg" xmlns:xlink="http://www.w3.org/1999/xlink" x="0px" y="0px" viewBox="0 0 1000 1000" enable-background="new 0 0 1000 1000" xml:space="preserve">
<metadata> Svg Vector Icons : http://www.onlinewebfonts.com/icon </metadata>
<g><g><path d="M314.1,990c-65.3-135.9-30.5-213.8,19.7-287.1c55-80.4,69.1-159.9,69.1-159.9s43.2,56.2,25.9,144c76.3-85,90.8-220.4,79.2-272.2C680.6,535.4,754.4,796.5,655,990c528.6-299.1,131.5-746.6,62.4-797.1c23,50.4,27.4,135.8-19.1,177.2C619.4,71.2,424.5,10,424.5,10c23,154.1-83.5,322.7-186.3,448.6c-3.6-61.5-7.4-103.9-39.8-162.7c-7.3,111.6-92.6,202.6-115.7,314.5C51.4,761.9,106.2,872.8,314.1,990z"/></g><g></g><g></g><g></g><g></g><g></g><g></g><g></g><g></g><g></g><g></g><g></g><g></g><g></g><g></g><g></g></g>
</svg>