<?xml version="1.0" encoding="utf-8"?>
<!-- Svg Vector Icons : http://www.onlinewebfonts.com/icon -->
<!DOCTYPE svg PUBLIC "-//W3C//DTD SVG 1.1//EN" "http://www.w3.org/Graphics/SVG/1.1/DTD/svg11.dtd">
<svg version="1.1" xmlns="http://www.w3.org/2000/svg" xmlns:xlink="http://www.w3.org/1999/xlink" x="0px" y="0px" viewBox="0 0 1000 1000" enable-background="new 0 0 1000 1000" xml:space="preserve">
<metadata> Svg Vector Icons : http://www.onlinewebfonts.com/icon </metadata>
<g><g transform="translate(0.000000,511.000000) scale(0.100000,-0.100000)"><path d="M816.7,4057.1c-166.8-57.8-288.7-136.9-419.2-275.9c-147.6-154-245.9-340-275.9-521.8c-27.8-181.8-29.9-3094.6,0-3250.7c57.7-303.7,290.9-598.8,592.4-740c162.5-77,175.4-81.3,449.1-87.7l280.2-8.6l8.6-389.2l6.4-389.2l79.1-160.4c145.4-295.1,449.1-526.1,757.1-575.3c70.6-12.8,205.3-21.4,301.6-21.4h173.2l8.6-380.7l6.4-380.7l83.4-166.8c109.1-222.4,273.8-387.1,496.2-496.1l166.8-83.4h2801.6H9136l145.4,70.6c275.9,134.7,511.1,410.6,581.7,677.9c49.2,190.4,49.2,3210.1,0,3400.4c-74.8,282.3-282.3,530.4-562.5,667.3c-160.4,79.1-166.8,81.3-447,87.7l-284.4,8.6v295.1c0,160.4-10.7,346.5-21.4,408.5c-34.2,179.6-139,372.1-286.6,519.7c-226.7,228.8-447,312.2-816.9,312.2h-218.1l-8.6,391.4c-6.4,389.2-6.4,389.2-74.9,534.7c-96.2,201-312.2,417-513.3,513.3l-145.4,68.4l-2780.2,4.3C1109.7,4093.4,917.2,4091.3,816.7,4057.1z M6449.9,3458.3c40.6-19.3,94.1-64.2,117.6-96.2c44.9-59.9,44.9-79.1,51.3-1700.2c6.4-1860.6,15-1747.3-166.8-1837.1l-94.1-49.2H3671.8c-2600.6,0-2686.1,2.1-2773.8,42.8c-53.5,23.5-109.1,70.6-134.7,111.2C720.5-2,720.5,25.8,724.8,1659.7c6.4,1627.5,6.4,1661.7,49.2,1708.8c23.5,27.8,72.7,66.3,106.9,87.7c62,38.5,173.2,40.6,2780.2,40.6C6203.9,3496.8,6381.4,3494.6,6449.9,3458.3z M7799.3,1924.9c40.6-25.7,92-77,117.6-117.6c42.8-72.7,42.8-104.8,42.8-1689.5c0-1586.9,0-1616.8-44.9-1698.1c-23.5-47.1-74.9-100.5-115.5-124c-70.6-36.4-192.5-38.5-2803.8-38.5H2266.7l-72.7,49.2c-128.3,85.5-147.6,154-147.6,532.5v337.9l2209.2,4.3l2209.2,6.4l166.8,83.4c216,106.9,402.1,288.7,504.7,494l74.9,149.7l6.4,1005.1c2.1,553.9,10.7,1018,15,1035.1c8.6,21.4,64.2,25.7,252.4,21.4C7677.4,1969.8,7739.5,1959.1,7799.3,1924.9z M9103.9,404.3c53.5-21.4,102.6-62,132.6-113.3l49.2-77v-1636c0-1591.2-2.1-1638.2-42.8-1706.6c-23.5-38.5-81.3-87.7-128.3-111.2c-87.7-42.8-141.1-42.8-2782.3-42.8c-2619.8,0-2694.7,2.1-2784.5,42.8c-147.6,66.3-175.4,151.8-175.4,549.6v325l2187.8,6.4c2181.4,6.4,2185.7,6.4,2307.6,53.5c340,128.3,605.2,429.9,677.9,772c15,72.7,23.5,440.6,23.5,1041.5v930.3h224.6C8949.9,438.5,9044,427.8,9103.9,404.3z"/><path d="M1366.3,1129.3l6.4-295.1l434.1-6.4l432-4.3v299.4v299.4h-438.4h-440.6L1366.3,1129.3z"/><path d="M2623.9,1122.9V823.5h425.6h423.5l10.7,156.1c4.3,83.4,4.3,218.1,0,299.4l-8.6,143.3h-425.6h-425.6V1122.9z"/><path d="M3885.6,1122.9V823.5h427.7h427.7v299.4v299.4h-427.7h-427.7V1122.9z"/><path d="M5147.4,1122.9V823.5h427.7h427.7v299.4v299.4h-427.7h-427.7V1122.9z"/></g></g>
</svg>