<?xml version="1.0" encoding="utf-8"?>
<!-- Svg Vector Icons : http://www.onlinewebfonts.com/icon -->
<!DOCTYPE svg PUBLIC "-//W3C//DTD SVG 1.1//EN" "http://www.w3.org/Graphics/SVG/1.1/DTD/svg11.dtd">
<svg version="1.1" xmlns="http://www.w3.org/2000/svg" xmlns:xlink="http://www.w3.org/1999/xlink" x="0px" y="0px" viewBox="0 0 1000 1000" enable-background="new 0 0 1000 1000" xml:space="preserve">
<metadata> Svg Vector Icons : http://www.onlinewebfonts.com/icon </metadata>
<g><path d="M12.2,953.5C51.8,874.6,95.8,766.4,93.6,691C40.2,626.6,10,543.6,10,459C10,220.7,241.2,46.5,500,46.5c257.2,0,490,172.9,490,412.5c0,249.5-274.9,482.5-652,389.9C269.5,891.3,118.4,934.1,12.2,953.5z M500,141.9c-217.6,0-394.6,142.3-394.6,317.1c0,92,39.7,149.9,95.8,207.1c-11.4,84.8-38.7,158.6-38.7,158.6s80.9-21.4,172.8-75.1C686.8,842.8,894.6,640,894.6,459C894.6,284.2,717.6,141.9,500,141.9z"/></g>
</svg>