<?xml version="1.0" encoding="utf-8"?>
<!-- Svg Vector Icons : http://www.onlinewebfonts.com/icon -->
<!DOCTYPE svg PUBLIC "-//W3C//DTD SVG 1.1//EN" "http://www.w3.org/Graphics/SVG/1.1/DTD/svg11.dtd">
<svg version="1.1" xmlns="http://www.w3.org/2000/svg" xmlns:xlink="http://www.w3.org/1999/xlink" x="0px" y="0px" viewBox="0 0 1000 1000" enable-background="new 0 0 1000 1000" xml:space="preserve">
<metadata> Svg Vector Icons : http://www.onlinewebfonts.com/icon </metadata>
<g><path d="M935.6,831.3c0,38.7,22.1,72.2,54.4,88.6v13.6c-9,1.2-18.3,1.9-27.6,1.9c-57.9,0-110-24.3-146.9-63.2c-22.3,5.9-45.9,9.1-70.4,9.1c-135.3,0-245-97.5-245-217.8s109.7-217.8,245-217.8s245,97.5,245,217.8c0,47.1-16.8,90.7-45.4,126.3C938.8,802.5,935.6,816.5,935.6,831.3L935.6,831.3z M445.6,64.7c236.9,0,429.6,153.6,435.4,345c-41.8-18.6-88.1-28.5-136-28.5c-81.3,0-158.1,28.5-216.2,80.1c-60.3,53.6-93.5,125.4-93.5,202.3c0,38,8.1,74.8,23.6,108.7c-4.4,0.1-8.9,0.2-13.4,0.2c-23.1,0-45.8-1.5-67.9-4.3c-93.6,93.6-205.2,110.3-313.2,112.8V858c58.3-28.6,108.9-80.6,108.9-140.1c0-8.3-0.6-16.4-1.8-24.4C73,628.7,10,529.6,10,418.5C10,223.1,205,64.7,445.6,64.7L445.6,64.7z"/></g>
</svg>