<?xml version="1.0" encoding="utf-8"?>
<!-- Svg Vector Icons : http://www.onlinewebfonts.com/icon -->
<!DOCTYPE svg PUBLIC "-//W3C//DTD SVG 1.1//EN" "http://www.w3.org/Graphics/SVG/1.1/DTD/svg11.dtd">
<svg version="1.1" xmlns="http://www.w3.org/2000/svg" xmlns:xlink="http://www.w3.org/1999/xlink" x="0px" y="0px" viewBox="0 0 1000 1000" enable-background="new 0 0 1000 1000" xml:space="preserve">
<metadata> Svg Vector Icons : http://www.onlinewebfonts.com/icon </metadata>
<g><path d="M512.9,383.9H874c17.8,0,32.2-14.4,32.2-32.2c0-10.6-5.2-20.1-13.1-25.9L535.8,19.6c-5.8-5.9-13.9-9.6-22.9-9.6c-17.8,0-32.2,14.4-32.2,32.2v309.5C480.7,369.5,495.1,383.9,512.9,383.9z M545.1,112.2L787,319.5H545.1V112.2z M874,461.3c-17.8,0-32.2,14.4-32.2,32.2v6.4v303v70.9c0,28.5-23.1,51.6-51.6,51.6H209.9c-28.5,0-51.6-23.1-51.6-51.6V126.1c0-28.5,23.1-51.6,51.6-51.6h19.3H371h6.4v-0.6c14.7-3,25.8-16,25.8-31.6c0-15.6-11.1-28.6-25.8-31.6V10H371H229.2h-19.3C145.8,10,93.8,62,93.8,126.1v747.9c0,64.1,52,116.1,116.1,116.1h580.3c64.1,0,116.1-52,116.1-116.1V803V500v-6.4C906.2,475.7,891.8,461.3,874,461.3z"/></g>
</svg>