<?xml version="1.0" encoding="utf-8"?>
<!-- Svg Vector Icons : http://www.onlinewebfonts.com/icon -->
<!DOCTYPE svg PUBLIC "-//W3C//DTD SVG 1.1//EN" "http://www.w3.org/Graphics/SVG/1.1/DTD/svg11.dtd">
<svg version="1.1" xmlns="http://www.w3.org/2000/svg" xmlns:xlink="http://www.w3.org/1999/xlink" x="0px" y="0px" viewBox="0 0 1000 1000" enable-background="new 0 0 1000 1000" xml:space="preserve">
<metadata> Svg Vector Icons : http://www.onlinewebfonts.com/icon </metadata>
<g><g><path d="M730.6,274.8c-9.3-9.2-22-13.9-34.6-13.9c-12.7,0-25.4,4.7-34.6,13.9L549,387.2V59c0-27-22-49-49-49c-27,0-49,22-49,49v328.2L338.6,274.8c-9.3-9.2-21.6-14.4-34.6-14.4s-25.4,5.1-34.6,14.4c-19.1,19.1-19.1,50.2,0,69.3L500,573.5L730.7,344C749.8,325,749.8,293.9,730.6,274.8z"/><path d="M940.4,696c0-5.1-0.2-10.3-1.9-15.5l-98-294c-6.7-20-25.3-33.5-46.5-33.5h-10.7c-4.6,9.2-10.3,18-18,25.7L692.7,451h66.1l81.7,245H159.6l81.7-245h66.1l-72.7-72.3c-7.7-7.7-13.4-16.5-18-25.7H206c-21.1,0-39.8,13.5-46.5,33.5l-98,294c-1.7,5.1-1.9,10.3-1.9,15.5C59,696,59,941,59,941c0,27.1,21.9,49,49,49h784c27.1,0,49-21.9,49-49C941,941,941,696,940.4,696z"/></g></g>
</svg>