<?xml version="1.0" encoding="utf-8"?>
<!-- Svg Vector Icons : http://www.onlinewebfonts.com/icon -->
<!DOCTYPE svg PUBLIC "-//W3C//DTD SVG 1.1//EN" "http://www.w3.org/Graphics/SVG/1.1/DTD/svg11.dtd">
<svg version="1.1" xmlns="http://www.w3.org/2000/svg" xmlns:xlink="http://www.w3.org/1999/xlink" x="0px" y="0px" viewBox="0 0 1000 1000" enable-background="new 0 0 1000 1000" xml:space="preserve">
<metadata> Svg Vector Icons : http://www.onlinewebfonts.com/icon </metadata>
<g><g><path d="M760.3,729.7c-61.3,0-119-23.9-162.4-67.3L500,564.5l-97.9,97.9c-43.4,43.4-101.1,67.3-162.4,67.3c-61.4,0-119-23.9-162.4-67.3C33.9,619,10,561.4,10,500s23.9-119,67.3-162.4c43.4-43.4,101.1-67.3,162.4-67.3c61.4,0,119,23.9,162.4,67.3l97.9,97.9l97.9-97.9c43.4-43.4,101.1-67.3,162.4-67.3c61.4,0,119,23.9,162.4,67.3C966.1,381,990,438.6,990,500c0,61.4-23.9,119-67.3,162.4C879.3,705.8,821.7,729.7,760.3,729.7L760.3,729.7z M662.4,597.9c26.1,26.1,60.9,40.5,97.9,40.5c37,0,71.7-14.4,97.9-40.5c26.1-26.1,40.5-60.9,40.5-97.9c0-37-14.4-71.7-40.5-97.9c-26.1-26.1-60.9-40.5-97.9-40.5c-37,0-71.7,14.4-97.9,40.5L564.5,500L662.4,597.9z M239.7,361.6c-37,0-71.7,14.4-97.9,40.5c-26.1,26.1-40.5,60.9-40.5,97.9c0,37,14.4,71.7,40.5,97.9c26.1,26.1,60.9,40.5,97.9,40.5c37,0,71.7-14.4,97.9-40.5l97.9-97.9l-97.9-97.9C311.4,376,276.7,361.6,239.7,361.6L239.7,361.6z"/></g></g>
</svg>