<?xml version="1.0" encoding="utf-8"?>
<!-- Svg Vector Icons : http://www.onlinewebfonts.com/icon -->
<!DOCTYPE svg PUBLIC "-//W3C//DTD SVG 1.1//EN" "http://www.w3.org/Graphics/SVG/1.1/DTD/svg11.dtd">
<svg version="1.1" xmlns="http://www.w3.org/2000/svg" xmlns:xlink="http://www.w3.org/1999/xlink" x="0px" y="0px" viewBox="0 0 1000 1000" enable-background="new 0 0 1000 1000" xml:space="preserve">
<metadata> Svg Vector Icons : http://www.onlinewebfonts.com/icon </metadata>
<g><path d="M494.5,942.4C226.9,942.4,10,857.5,10,752.8c0-36.5,26.8-70.4,72.4-99.3c26,5,51,13.2,74.4,24c-52.3,21-83.6,47-83.6,75.3c0,69.8,188.6,126.4,421.3,126.4c232.7,0,421.3-56.6,421.3-126.4c0-26.2-26.7-50.6-72.2-70.8c21.5-10.8,44.4-19.3,68.3-25.2c42.4,28.2,67.1,60.9,67.1,95.9C979,857.5,762.1,942.4,494.5,942.4z"/><path d="M505.5,725.7C237.9,725.7,21,640.9,21,536.2c0-36.5,26.8-70.4,72.4-99.4c26,5,51,13.2,74.4,24c-52.3,21.1-83.6,47.1-83.6,75.4c0,69.8,188.6,126.4,421.3,126.4c232.7,0,421.3-56.6,421.3-126.4c0-26.2-26.7-50.6-72.2-70.8c21.5-10.8,44.4-19.3,68.3-25.2c42.4,28.2,67.1,60.9,67.1,95.9C990,640.9,773.1,725.7,505.5,725.7z"/><path d="M494.5,436.8C226.9,436.8,10,351.9,10,247.2S226.9,57.6,494.5,57.6c267.6,0,484.5,84.9,484.5,189.6S762.1,436.8,494.5,436.8z"/><path d="M494.5,118c-237.9,0-430.7,57.9-430.7,129.2c0,71.4,192.8,129.2,430.7,129.2c237.8,0,430.7-57.8,430.7-129.2C925.2,175.9,732.3,118,494.5,118z"/><path d="M495,446.6c267.6,0,484.5-84.8,484.5-189.5c0-104.7-216.9-189.5-484.5-189.5S10.5,152.4,10.5,257.1C10.5,361.8,227.5,446.6,495,446.6z M495,121.4c237.8,0,430.7,60.7,430.7,135.7c0,74.9-192.8,135.7-430.7,135.7c-237.8,0-430.7-60.7-430.7-135.7C64.4,182.2,257.2,121.4,495,121.4z"/><path d="M910.8,400.1c-16,8.8-33.4,17.1-51.9,24.7c0,0,0,0,0,0c42.3,21,66.8,45.9,66.8,72.6c0,74.9-192.8,135.7-430.7,135.7c-237.8,0-430.7-60.7-430.7-135.7c0-26.7,24.5-51.6,66.8-72.6c0,0,0,0,0,0c-17.8-7.4-34.4-15.3-49.8-23.6c0,0,0,0,0,0c-1,0-1.8-0.3-2.6-0.8c-43.3,28.4-68.2,61.5-68.2,97c0,104.7,216.9,189.5,484.5,189.5s484.5-84.8,484.5-189.5C979.5,461.8,954.4,428.5,910.8,400.1z"/><path d="M910.8,400.1C910.8,400.1,910.8,400.1,910.8,400.1C910.8,400.1,910.8,400.1,910.8,400.1C910.8,400.1,910.8,400.1,910.8,400.1z"/><path d="M910.8,645.6c-16,8.8-33.3,17.1-51.9,24.7c0,0,0,0,0,0c42.3,21,66.8,45.9,66.8,72.6c0,74.9-192.8,135.7-430.7,135.7c-237.8,0-430.7-60.7-430.7-135.7c0-26.7,24.5-51.6,66.8-72.6c0,0,0,0,0,0c-17.8-7.4-34.4-15.3-49.8-23.6c0,0,0,0,0,0c-1,0-1.8-0.3-2.6-0.8c-43.3,28.4-68.2,61.5-68.2,97c0,104.7,216.9,189.5,484.5,189.5c267.6,0,484.5-84.8,484.5-189.5C979.5,707.3,954.4,674,910.8,645.6z"/><path d="M910.8,645.5C910.8,645.6,910.8,645.6,910.8,645.5C910.8,645.6,910.8,645.6,910.8,645.5C910.8,645.6,910.8,645.6,910.8,645.5z"/></g>
</svg>