<?xml version="1.0" encoding="utf-8"?>
<!-- Svg Vector Icons : http://www.onlinewebfonts.com/icon -->
<!DOCTYPE svg PUBLIC "-//W3C//DTD SVG 1.1//EN" "http://www.w3.org/Graphics/SVG/1.1/DTD/svg11.dtd">
<svg version="1.1" xmlns="http://www.w3.org/2000/svg" xmlns:xlink="http://www.w3.org/1999/xlink" x="0px" y="0px" viewBox="0 0 1000 1000" enable-background="new 0 0 1000 1000" xml:space="preserve">
<metadata> Svg Vector Icons : http://www.onlinewebfonts.com/icon </metadata>
<g><path d="M815,325c35,0,175,140,175,175c0,35-140,175-175,175c-35,0-35-35-35-35V360C780,360,780,325,815,325z"/><path d="M780,465v70H535v245h-70V535H220v-70h245V220h70v245H780z"/><path d="M675,185c0,35-35,35-35,35H535h-70H360c0,0-35,0-35-35c0-35,140-175,175-175C535,10,675,150,675,185z"/><path d="M640,780c0,0,35,0,35,35c0,35-140,175-175,175c-35,0-175-140-175-175c0-35,35-35,35-35h105h70H640z"/><path d="M220,535v105c0,0,0,35-35,35c-35,0-175-140-175-175c0-35,140-175,175-175c35,0,35,35,35,35v105V535z"/></g>
</svg>