<?xml version="1.0" encoding="utf-8"?>
<!-- Svg Vector Icons : http://www.onlinewebfonts.com/icon -->
<!DOCTYPE svg PUBLIC "-//W3C//DTD SVG 1.1//EN" "http://www.w3.org/Graphics/SVG/1.1/DTD/svg11.dtd">
<svg version="1.1" xmlns="http://www.w3.org/2000/svg" xmlns:xlink="http://www.w3.org/1999/xlink" x="0px" y="0px" viewBox="0 0 1000 1000" enable-background="new 0 0 1000 1000" xml:space="preserve">
<metadata> Svg Vector Icons : http://www.onlinewebfonts.com/icon </metadata>
<g><path d="M664.2,523.5c70.4-51.8,116.4-135,116.4-229C780.6,137.6,653,10,496.1,10c-156.9,0-284.5,127.6-284.5,284.5c0,95.1,47.1,179.2,119,230.9C162.1,591.8,42.5,755.7,42.5,947.3c0,23.6,19.1,42.7,42.7,42.7s42.7-19.1,42.7-42.7C127.8,744.3,293,579,496.1,579c1.8,0,3.4-0.2,5.2-0.3c0.9,0.1,1.7,0.3,2.6,0.3c203.1,0,368.3,165.2,368.3,368.3c0,23.6,19.1,42.7,42.7,42.7c23.6,0,42.7-19.1,42.7-42.7C957.5,753.7,835.4,588.5,664.2,523.5z M296.9,294.5c0-109.9,89.4-199.2,199.2-199.2c109.8,0,199.2,89.4,199.2,199.2c0,109.8-89.4,199.2-199.2,199.2C386.2,493.7,296.9,404.4,296.9,294.5z"/></g>
</svg>