<?xml version="1.0" encoding="utf-8"?>
<!-- Svg Vector Icons : http://www.onlinewebfonts.com/icon -->
<!DOCTYPE svg PUBLIC "-//W3C//DTD SVG 1.1//EN" "http://www.w3.org/Graphics/SVG/1.1/DTD/svg11.dtd">
<svg version="1.1" xmlns="http://www.w3.org/2000/svg" xmlns:xlink="http://www.w3.org/1999/xlink" x="0px" y="0px" viewBox="0 0 1000 1000" enable-background="new 0 0 1000 1000" xml:space="preserve">
<metadata> Svg Vector Icons : http://www.onlinewebfonts.com/icon </metadata>
<g><path d="M500,990C229.4,990,10,770.6,10,500C10,229.4,229.4,10,500,10c270.6,0,490,219.4,490,490C990,770.6,770.6,990,500,990z M500,98.9C278.5,98.9,98.9,278.5,98.9,500c0,221.5,179.6,401.1,401.1,401.1c221.5,0,401.1-179.7,401.1-401.1C901.1,278.5,721.5,98.9,500,98.9z"/><path d="M493.5,644.9l-2.2-0.1c-37.6,0-65.6,27.3-66.7,64.9c-1.1,38.3,26.3,67,65.2,68.1h2.5c38.4,0,66.1-26.4,67.2-64.1C560.6,674.4,533.5,646.1,493.5,644.9z"/><path d="M682,374.6c0-50.3-18.1-89-53.8-114.8c-35.3-25.4-80.1-38.3-133.2-38.3c-40.4,0-75.2,9.1-103.1,27.1c-44.6,28.3-68.5,76.7-71.4,143.9l-0.1,4.8H430v-4.6c0-18.2,5.3-36.1,16.1-53.1c10.4-16.6,27.8-24.6,53.3-24.6c25.6,0,43.4,6.6,52.7,19.8c9.6,13.6,14.5,28.9,14.5,45.5c0,11.9-4.9,24-16.1,39.4c-4.7,6.9-11.2,13.5-18.8,19.2c-2.2,1.5-55.3,35.7-79.5,63.9c-15.3,18.1-16.2,39.8-17.5,76.9l-0.3,9.1h106.4l0.1-4.6c0.2-17.6,1.5-19.8,4.3-28.6c3.5-10.9,12.7-22.1,28-34l27.9-19.2c25.3-19.7,45.4-35.8,54.6-48.8l-0.1-0.1C673.1,429.4,682,402.8,682,374.6z"/></g>
</svg>