<?xml version="1.0" encoding="utf-8"?>
<!-- Svg Vector Icons : http://www.onlinewebfonts.com/icon -->
<!DOCTYPE svg PUBLIC "-//W3C//DTD SVG 1.1//EN" "http://www.w3.org/Graphics/SVG/1.1/DTD/svg11.dtd">
<svg version="1.1" xmlns="http://www.w3.org/2000/svg" xmlns:xlink="http://www.w3.org/1999/xlink" x="0px" y="0px" viewBox="0 0 1000 1000" enable-background="new 0 0 1000 1000" xml:space="preserve">
<metadata> Svg Vector Icons : http://www.onlinewebfonts.com/icon </metadata>
<g><g transform="translate(0.000000,511.000000) scale(0.100000,-0.100000)"><path d="M710.4,4999.4c-217.5-52.8-443.5-240.8-549.1-456.2L100,4416.5V107.9v-4308.6l57-120.4c78.1-169,226-321,395-403.4l139.4-67.6H5000h4308.6l139.4,67.6c169,82.4,316.8,234.4,395,403.4l57,120.4V107.9v4308.6l-67.6,139.4c-82.4,169-234.4,316.8-403.4,395l-120.4,57l-4266.4,4.2C2695.7,5012.1,746.3,5007.9,710.4,4999.4z M9376.2,4591.8c50.7-33.8,103.5-92.9,131-147.8c42.2-88.7,44.3-124.6,44.3-709.6v-616.7H5000H448.5v593.5c0,390.7,8.4,623.1,25.4,675.9c29.6,103.5,135.2,215.4,230.2,245c50.7,16.9,1320,23.2,4329.7,21.1l4255.8-4.2L9376.2,4591.8z M9551.5,1998.2v-760.3H5000H448.5v760.3v760.3H5000h4551.5V1998.2z M9551.5,107.9V-663H5000H448.5v770.9v770.9H5000h4551.5V107.9z M9551.5-1782.4v-760.3H5000H448.5v760.3v760.4H5000h4551.5V-1782.4z M9551.5-3529.1c0-544.9-4.2-616.7-40.1-692.8c-46.4-101.4-92.9-145.7-198.5-190.1c-67.6-27.5-549.1-31.7-4317.1-31.7H756.9l-92.9,44.4c-54.9,27.5-114.1,80.3-147.8,131l-57,84.5l-6.3,631.5l-6.3,629.4h4551.5h4553.6V-3529.1z"/></g></g>
</svg>