<?xml version="1.0" encoding="utf-8"?>
<!-- Svg Vector Icons : http://www.onlinewebfonts.com/icon -->
<!DOCTYPE svg PUBLIC "-//W3C//DTD SVG 1.1//EN" "http://www.w3.org/Graphics/SVG/1.1/DTD/svg11.dtd">
<svg version="1.1" xmlns="http://www.w3.org/2000/svg" xmlns:xlink="http://www.w3.org/1999/xlink" x="0px" y="0px" viewBox="0 0 1000 1000" enable-background="new 0 0 1000 1000" xml:space="preserve">
<metadata> Svg Vector Icons : http://www.onlinewebfonts.com/icon </metadata>
<g><path d="M988.3,737.3h0.8c-5-86.4-73.9-183.8-179.2-229.6c43.6-36.6,71.3-91.5,71.3-152.9c0-110.3-89.4-199.6-199.6-199.6c-12,0-23.7,1.1-35.1,3.1c-6.6,23.5-8,52.4,14.6,71.2c6.7-1.1,13.5-1.7,20.5-1.7c70.2,0,127,56.9,127,127c0,66-50.3,120.2-114.7,126.4c-12.1,15.2-27.6,44.2-2.1,73.3c2.6,0,5.3-0.1,7.9-0.1c126.5,0,211.9,109,217.7,180.6c0,0.1,0.1,0.3,0.1,0.9c0,14.2,21.2,36.3,36.3,36.3s36.3-12.1,36.3-26.3C990,742.9,989.3,740,988.3,737.3z M917.4,735.9c0-0.3-0.1-0.6-0.1-0.9C917.1,734.7,916.6,738.2,917.4,735.9z M734.9,839.1c-8.4-152.7-98.1-260-230.6-301.8c52.8-43.3,86.4-109,86.4-182.5c0-130.3-105.6-235.9-235.9-235.9c-130.3,0-235.9,105.6-235.9,235.9c0,78.7,38.6,148.4,97.9,191.3C98,592.9,18.9,696.1,11.1,839.1h0.9c-1.2,3.3-1.9,6.8-1.9,10.5c0,17.4,14.1,31.5,31.5,31.5c17.4,0,31.5-14.1,31.5-31.5c0-3.7-0.8-7.2-1.9-10.5h3c9.4-142.2,101.3-231.5,234.2-252.9c15,3,30.6,4.6,46.5,4.6c20.6,0,40.6-2.7,59.6-7.6c145.2,14.4,247.4,105.6,257.4,255.9h3c-1.2,3.3-1.9,6.8-1.9,10.5c0,17.4,14.1,31.5,31.5,31.5c17.4,0,31.5-14.1,31.5-31.5c0-3.7-0.8-7.2-1.9-10.5H734.9z M354.8,518.1c-90.2,0-163.3-73.1-163.3-163.3c0-90.2,73.1-163.3,163.3-163.3c90.2,0,163.3,73.1,163.3,163.3C518.1,445,445,518.1,354.8,518.1z"/></g>
</svg>