<?xml version="1.0" encoding="utf-8"?>
<!-- Svg Vector Icons : http://www.onlinewebfonts.com/icon -->
<!DOCTYPE svg PUBLIC "-//W3C//DTD SVG 1.1//EN" "http://www.w3.org/Graphics/SVG/1.1/DTD/svg11.dtd">
<svg version="1.1" xmlns="http://www.w3.org/2000/svg" xmlns:xlink="http://www.w3.org/1999/xlink" x="0px" y="0px" viewBox="0 0 1000 1000" enable-background="new 0 0 1000 1000" xml:space="preserve">
<metadata> Svg Vector Icons : http://www.onlinewebfonts.com/icon </metadata>
<g><g transform="translate(0.000000,512.000000) scale(0.100000,-0.100000)"><path d="M795.7,5004.5c-341.1-51.7-626.7-343-676.5-693.8c-11.5-69-19.2-1525.5-19.2-3397.9c0-3499.5-1.9-3422.8,92-3604.9c99.7-193.6,279.8-348.8,477.2-410.1c120.7-36.4,174.4-38.3,1818.7-38.3h1694.2v402.5v402.5H2543.5H904.9V941.6v3277.2h1548.5l1546.6-1.9l914.2-1098.1l916.1-1100.1v-739.8V539.2h402.5h402.5v781.9c0,856.7-7.7,925.7-113.1,1098.1c-30.7,47.9-486.8,607.5-1015.7,1241.9c-1013.8,1215-1027.2,1228.5-1257.2,1316.6c-90.1,34.5-178.2,36.4-1724.8,38.3C1629.3,5018,851.3,5012.2,795.7,5004.5z"/><path d="M1326.5,2771.8v-603.7H1729h402.5v603.7v603.7H1729h-402.5V2771.8z"/><path d="M2553.1,2771.8v-603.7h402.5H3358v603.7v603.7h-402.5h-402.5V2771.8z"/><path d="M8630.2-334.8c-413.9-111.2-749.3-527-749.3-929.5v-90.1l-571.1-228.1l-571.1-230l-84.3,67.1c-394.8,302.8-939.1,287.5-1297.5-40.2c-220.4-201.2-333.5-450.4-337.3-741.7c-5.8-567.3,444.6-1021.5,1011.9-1021.5c233.8,0,425.5,65.1,613.3,208.9l92,69l573-226.1l571.1-228.1v-97.7c0-55.6,17.3-159.1,40.2-230c224.2-735.9,1142.2-967.8,1682.7-427.4c333.5,333.5,392.9,864.3,139.9,1255.3c-356.5,546.2-1098.1,630.5-1558.1,176.3l-113.1-111.2l-519.4,207l-519.4,208.9l-3.8,203.1l-1.9,201.2l507.9,203.1c279.8,111.2,517.5,203.2,528.9,203.2c9.6,0,53.7-34.5,93.9-78.6c550-565.4,1483.4-329.6,1707.6,433.1c46,157.2,42.2,402.5-9.6,567.3c-70.9,226.1-256.8,460-461.9,576.9C9184.1-311.8,8866-271.5,8630.2-334.8z"/></g></g>
</svg>