<?xml version="1.0" encoding="utf-8"?>
<!-- Svg Vector Icons : http://www.onlinewebfonts.com/icon -->
<!DOCTYPE svg PUBLIC "-//W3C//DTD SVG 1.1//EN" "http://www.w3.org/Graphics/SVG/1.1/DTD/svg11.dtd">
<svg version="1.1" xmlns="http://www.w3.org/2000/svg" xmlns:xlink="http://www.w3.org/1999/xlink" x="0px" y="0px" viewBox="0 0 1000 1000" enable-background="new 0 0 1000 1000" xml:space="preserve">
<metadata> Svg Vector Icons : http://www.onlinewebfonts.com/icon </metadata>
<g><g transform="translate(0.000000,511.000000) scale(0.100000,-0.100000)"><path d="M4781.3,4952.6c-64.5-30.5-895.7-838-1849.1-1794.8c-1879.6-1883-1866.1-1869.5-1784.6-2144.3c105.2-349.5,458-505.5,777-342.7c67.9,37.3,661.6,600.5,1313,1255.4L4425.1,3117l17-3779.7c17-3769.4,17-3783,88.2-3878c247.7-332.5,661.6-332.5,909.3,0c71.2,95,71.2,101.8,81.4,3884.8l6.8,3786.4l1265.5-1258.7C8174.2,494.4,8177.5,491,8469.3,569c183.2,50.9,366.4,254.5,400.4,437.7c44.1,271.4,10.2,308.7-1869.5,2185c-1503,1492.9-1781.2,1757.5-1896.6,1788C4934,5023.8,4927.2,5023.8,4781.3,4952.6z"/></g></g>
</svg>