<?xml version="1.0" encoding="utf-8"?>
<!-- Svg Vector Icons : http://www.onlinewebfonts.com/icon -->
<!DOCTYPE svg PUBLIC "-//W3C//DTD SVG 1.1//EN" "http://www.w3.org/Graphics/SVG/1.1/DTD/svg11.dtd">
<svg version="1.1" xmlns="http://www.w3.org/2000/svg" xmlns:xlink="http://www.w3.org/1999/xlink" x="0px" y="0px" viewBox="0 0 1000 1000" enable-background="new 0 0 1000 1000" xml:space="preserve">
<metadata> Svg Vector Icons : http://www.onlinewebfonts.com/icon </metadata>
<g><g transform="translate(0.000000,511.000000) scale(0.100000,-0.100000)"><path d="M4814.1,4982.2c-98.4-40.7-227.4-156.1-281.7-251.1c-30.6-50.9-44.1-1072.4-57.7-3838.2l-17-3773.7L3236-1676.1C1926.1-389.9,1837.9-318.7,1583.3-359.4c-183.3-33.9-386.9-217.2-437.8-400.4c-74.6-281.7-101.8-247.8,1737.6-2080.3c933.2-929.8,1724-1734.1,1754.5-1785c98.4-166.3,444.6-220.6,631.2-98.4c54.3,37.3,875.6,841.6,1825.8,1788.4C8964.5-1065.3,8930.5-1106,8852.5-820.9c-88.2,329.2-414.1,495.5-736.5,373.3c-50.9-17-631.2-566.7-1282.8-1221.7c-655-651.5-1201.4-1184.4-1215-1184.4c-13.6,0-27.1,1693.4-30.6,3763.5c-10.1,3743.2-10.1,3766.9-81.4,3858.6c-118.8,162.9-237.6,227.4-427.6,241C4980.4,5012.7,4861.6,5002.6,4814.1,4982.2z"/></g></g>
</svg>