<?xml version="1.0" encoding="UTF-8" standalone="no"?>
<!-- Created with Inkscape (http://www.inkscape.org/) -->

<svg
   xmlns:dc="http://purl.org/dc/elements/1.1/"
   xmlns:cc="http://creativecommons.org/ns#"
   xmlns:rdf="http://www.w3.org/1999/02/22-rdf-syntax-ns#"
   xmlns:svg="http://www.w3.org/2000/svg"
   xmlns="http://www.w3.org/2000/svg"
   xmlns:sodipodi="http://sodipodi.sourceforge.net/DTD/sodipodi-0.dtd"
   xmlns:inkscape="http://www.inkscape.org/namespaces/inkscape"
   width="210mm"
   height="297mm"
   viewBox="0 0 210 297"
   version="1.1"
   id="svg8"
   inkscape:version="0.92.1 15371"
   sodipodi:docname="arrow-down.svg">
  <defs
     id="defs2" />
  <sodipodi:namedview
     id="base"
     pagecolor="#ffffff"
     bordercolor="#666666"
     borderopacity="1.0"
     inkscape:pageopacity="0.0"
     inkscape:pageshadow="2"
     inkscape:zoom="0.35"
     inkscape:cx="-344.28571"
     inkscape:cy="560"
     inkscape:document-units="mm"
     inkscape:current-layer="layer1"
     showgrid="false"
     inkscape:window-width="742"
     inkscape:window-height="395"
     inkscape:window-x="2454"
     inkscape:window-y="50"
     inkscape:window-maximized="0" />
  <metadata
     id="metadata5">
    <rdf:RDF>
      <cc:Work
         rdf:about="">
        <dc:format>image/svg+xml</dc:format>
        <dc:type
           rdf:resource="http://purl.org/dc/dcmitype/StillImage" />
        <dc:title></dc:title>
      </cc:Work>
    </rdf:RDF>
  </metadata>
  <g
     inkscape:label="Layer 1"
     inkscape:groupmode="layer"
     id="layer1">
    <g
       id="g3684"
       transform="matrix(0.26458333,0,0,0.26458333,-381.75595,-8.3915315)"
       style="fill:#808080"
       inkscape:export-xdpi="4.8979592"
       inkscape:export-ydpi="4.8979592"
       inkscape:export-filename="/home/pepo/workspace/c1-vue/frontend/src/assets/images/arrow-down.png">
      <path
         id="path3682"
         d="m 990,295.8 c 0,8.5 -3.3,16 -9.8,22.6 L 522.6,775.9 c -6.5,6.5 -14.1,9.8 -22.6,9.8 -8.5,0 -16,-3.3 -22.6,-9.8 L 19.8,318.3 C 13.3,311.8 10,304.2 10,295.7 c 0,-8.5 3.3,-16 9.8,-22.6 L 68.9,224 c 6.5,-6.5 14.1,-9.8 22.6,-9.8 8.5,0 16,3.3 22.6,9.8 L 500,610 885.9,224.1 c 6.5,-6.5 14.1,-9.8 22.6,-9.8 8.5,0 16,3.3 22.6,9.8 l 49.1,49.1 c 6.5,6.5 9.8,14 9.8,22.6 z"
         inkscape:connector-curvature="0"
         style="fill:#808080" />
    </g>
    <g
       id="g4540"
       transform="matrix(0.26458333,0,0,0.26458333,-111.88095,-6.8796265)">
      <g
         id="g4538"
         transform="matrix(1,0,0,-1,0,1536)">
        <path
           id="path4536"
           d="m 990,1240.2 c 0,-8.5 -3.3,-16 -9.8,-22.6 L 522.6,760.1 c -6.5,-6.5 -14.1,-9.8 -22.6,-9.8 -8.5,0 -16,3.3 -22.6,9.8 L 19.8,1217.7 c -6.5,6.5 -9.8,14.1 -9.8,22.6 0,8.5 3.3,16 9.8,22.6 l 49.1,49.1 c 6.5,6.5 14.1,9.8 22.6,9.8 8.5,0 16,-3.3 22.6,-9.8 L 500,926 885.9,1311.9 c 6.5,6.5 14.1,9.8 22.6,9.8 8.5,0 16,-3.3 22.6,-9.8 l 49.1,-49.1 c 6.5,-6.5 9.8,-14 9.8,-22.6 z"
           inkscape:connector-curvature="0" />
      </g>
    </g>
    <g
       id="g4557"
       transform="matrix(0.26458333,0,0,0.26458333,-250.97619,173.79299)"
       style="fill:#808080"
       inkscape:export-filename="/home/pepo/workspace/c1-vue/frontend/src/assets/images/arrow-up.png"
       inkscape:export-xdpi="4"
       inkscape:export-ydpi="4">
      <g
         id="g4555"
         transform="matrix(1,0,0,-1,0,1536)"
         style="fill:#808080">
        <path
           id="path4553"
           d="m 990,831.8 c 0,-8.5 -3.3,-16 -9.8,-22.6 l -49.1,-49.1 c -6.5,-6.5 -14.1,-9.8 -22.6,-9.8 -8.5,0 -16,3.3 -22.6,9.8 L 500,1146 114.1,760.1 c -6.5,-6.5 -14.1,-9.8 -22.6,-9.8 -8.5,0 -16,3.3 -22.6,9.8 l -49.1,49.1 c -6.5,6.5 -9.8,14.1 -9.8,22.6 0,8.5 3.3,16 9.8,22.6 L 477.4,1312 c 6.5,6.5 14.1,9.8 22.6,9.8 8.5,0 16,-3.3 22.6,-9.8 L 980.2,854.4 c 6.5,-6.6 9.8,-14.1 9.8,-22.6 z"
           inkscape:connector-curvature="0"
           style="fill:#808080" />
      </g>
    </g>
  </g>
</svg>
