<?xml version="1.0" encoding="utf-8"?>
<!-- Svg Vector Icons : http://www.onlinewebfonts.com/icon -->
<!DOCTYPE svg PUBLIC "-//W3C//DTD SVG 1.1//EN" "http://www.w3.org/Graphics/SVG/1.1/DTD/svg11.dtd">
<svg version="1.1" xmlns="http://www.w3.org/2000/svg" xmlns:xlink="http://www.w3.org/1999/xlink" x="0px" y="0px" viewBox="0 0 1000 1000" enable-background="new 0 0 1000 1000" xml:space="preserve">
<metadata> Svg Vector Icons : http://www.onlinewebfonts.com/icon </metadata>
<g><g transform="translate(0.000000,512.000000) scale(0.100000,-0.100000)"><path d="M4622.6,5016.9c-693.8-70.9-1213.2-214.7-1782.4-494.5c-500.2-245.3-856.7-498.3-1263-891.2c-417.8-408.2-722.6-828-981.3-1353.1c-241.5-494.5-389.1-979.4-471.5-1552.4c-32.6-226.2-32.6-981.3,0-1207.5c136.1-950.6,504.1-1803.5,1082.9-2506.9c1353.1-1642.5,3595.5-2229,5571.5-1458.5C8043.7-3952.7,9071-2923.5,9569.3-1650.9C9772.5-1127.7,9876-625.6,9897-41c46,1326.3-446.6,2604.6-1374.2,3562.9c-421.7,435.1-833.7,736-1370.4,998.5c-483,237.7-927.6,377.6-1466.2,460C5492.8,5009.2,4789.4,5034.1,4622.6,5016.9z M5676.7,4359.5c1201.7-203.2,2221.3-860.5,2895.9-1872.5c343.1-511.7,569.2-1098.2,672.7-1742.2c46-293.2,46-931.5,0-1236.2c-189.7-1228.5-856.7-2276.9-1884-2963c-517.5-345-1113.5-575-1751.8-672.7c-304.7-46-943-46-1236.2,0c-962.1,155.3-1815,596.1-2464.7,1272.6C1284-2202.9,896.8-1417.1,747.3-501c-46,295.2-46,952.6,1.9,1245.8c155.2,956.4,553.9,1742.2,1217,2407.2c726.4,726.4,1650.2,1157.6,2685.1,1251.5C4858.4,4422.7,5452.5,4395.9,5676.7,4359.5z"/><path d="M4871.8,2855c-70.9-32.6-134.2-99.7-161-170.6c-13.4-36.4-21.1-421.6-21.1-1153.8v-1102l-1128.9-3.8c-1107.8-5.7-1130.8-5.7-1182.5-46c-101.6-74.7-132.3-136.1-132.3-256.8c0-120.8,30.7-182.1,132.3-256.8c51.8-40.3,74.7-40.3,1180.6-46l1130.8-3.8l3.8-1130.8c5.7-1105.9,5.7-1128.8,46-1180.6c74.7-101.6,136.1-132.2,256.8-132.2c120.7,0,182.1,30.7,256.8,132.2c40.2,51.8,40.2,74.7,46,1180.6l3.8,1130.8l1130.8,3.8c1105.9,5.7,1128.9,5.7,1180.6,46C7716-60.2,7746.6,1.2,7746.6,121.9c0,120.7-30.7,182.1-132.3,256.8c-51.7,40.3-74.7,40.3-1180.6,46L5303,428.6l-3.8,1130.8c-5.8,1105.9-5.8,1128.9-46,1180.6c-21.1,28.8-61.3,70.9-88.2,90.1C5099.9,2877.9,4948.4,2891.4,4871.8,2855z"/></g></g>
</svg>