<?xml version="1.0" encoding="utf-8"?>
<!-- Svg Vector Icons : http://www.onlinewebfonts.com/icon -->
<!DOCTYPE svg PUBLIC "-//W3C//DTD SVG 1.1//EN" "http://www.w3.org/Graphics/SVG/1.1/DTD/svg11.dtd">
<svg version="1.1" xmlns="http://www.w3.org/2000/svg" xmlns:xlink="http://www.w3.org/1999/xlink" x="0px" y="0px" viewBox="0 0 1000 1000" enable-background="new 0 0 1000 1000" xml:space="preserve">
<metadata> Svg Vector Icons : http://www.onlinewebfonts.com/icon </metadata>
<g><g transform="translate(0.000000,512.000000) scale(0.100000,-0.100000)"><path d="M2893.6,5001.1c-55.5-23-128.3-88.1-158.9-141.7c-17.2-28.7-24.9-1122.1-32.6-4306.5l-9.6-4268.2L1650.8-2654.5C1078.3-2070.5,584.3-1578.4,553.6-1557.3c-130.2,84.2-342.8,23-417.4-124.5c-49.8-95.7-47.9-183.8,3.8-279.6c63.2-113,2684.6-2774.6,2757.4-2799.5c74.7-26.8,147.4-26.8,220.2,0c72.8,24.9,2696.1,2686.6,2759.3,2799.5c111,203-30.6,438.5-264.3,438.5c-59.4,0-114.9-13.4-149.3-34.5c-30.6-21.1-524.7-513.2-1097.2-1097.2L3324.4-3715.4l-9.6,4272l-9.6,4272.1l-40.2,51.7c-21.1,28.7-61.3,70.8-88.1,90C3117.6,5014.5,2964.4,5031.7,2893.6,5001.1z"/><path d="M8408.4,4991.5c-448.1-95.7-834.9-486.4-928.7-936.4C7297.8,3185.8,8067.5,2416,8933,2599.9c346.6,72.8,677.9,329.4,831.1,641.5C10225.6,4173.9,9421.3,5209.8,8408.4,4991.5z M8935,4350c120.6-57.4,237.4-172.3,296.8-294.9c36.4-76.6,46-126.4,46-258.5c1.9-149.4-3.8-172.3-63.2-283.4c-72.7-134-134-193.4-277.7-268.1c-82.3-42.1-122.5-49.8-260.4-49.8c-137.9,0-178,7.7-260.4,49.8c-143.6,74.7-204.9,134-275.7,266.2c-180,337-23,733.4,344.7,867.4C8605.6,4422.8,8810.5,4409.4,8935,4350z"/><path d="M8408.4,1315c-448.1-95.7-834.9-486.4-928.7-936.4C7297.8-490.7,8067.5-1260.5,8933-1076.7c453.8,95.8,846.3,488.3,940.2,938.3C10055.2,734.8,9281.5,1502.6,8408.4,1315z M8864.1,702.2c145.5-47.9,268.1-151.3,346.6-294.9c63.2-114.9,68.9-136,68.9-287.2c-1.9-147.4-7.7-174.2-65.1-283.4c-72.7-134-134-191.5-277.7-268.1c-82.3-42.1-122.5-49.8-260.4-51.7c-151.3,0-172.3,5.7-287.2,68.9C8125-268.6,8002.4,32,8094.3,305.9C8205.4,631.4,8542.4,805.6,8864.1,702.2z"/><path d="M8408.4-2361.5c-448.1-95.7-834.9-486.4-928.7-936.4C7297.8-4167.3,8067.5-4937,8933-4753.2c453.8,95.7,846.3,488.3,940.2,938.3C10055.2-2941.8,9281.5-2173.9,8408.4-2361.5z M8961.8-3020.3c130.2-68.9,208.7-151.3,273.8-287.2c32.5-67,42.1-122.6,42.1-248.9c1.9-149.4-3.8-172.3-63.2-283.4c-68.9-126.4-145.5-199.2-289.1-273.8c-70.8-36.4-116.8-44.1-248.9-46c-151.3,0-172.3,5.7-287.2,68.9c-264.2,145.5-386.8,446.2-294.9,720C8220.7-3001.1,8620.9-2840.3,8961.8-3020.3z"/></g></g>
</svg>